<?xml version="1.0" encoding="UTF-8"?>
<svg width="320" height="320" viewBox="0 0 200 240" xmlns="http://www.w3.org/2000/svg" role="img" aria-label="avatar airman">
  <defs>
    <linearGradient id="bodyGrad-airman" x1="0" x2="1">
      <stop offset="0%" stop-color="#ced8d2"/>
      <stop offset="100%" stop-color="#bcc6c0"/>
    </linearGradient>
  </defs>
  <rect x="24" y="18" width="152" height="204" rx="34" fill="#eef4f1" opacity=".28"/>
  <path d="M146 42 C157 42 164 50 164 61 V74 L157 68 L152 74 L146 68 L140 74 L134 68 V61 C134 50 139 42 146 42 Z" fill="#f4f7f6" stroke="#9fb0aa" stroke-width="2"/>
  <g>
    <g transform="rotate(-4 52 146)">
      <polygon points="54,126 76,126 70,176 44,174" fill="url(#bodyGrad-airman)"/>
      <polygon points="42,172 54,170 58,190 44,194 34,182" fill="#eedccf"/>
    </g>
    <g transform="rotate(4 148 146)">
      <polygon points="124,126 146,126 156,174 130,176" fill="url(#bodyGrad-airman)"/>
      <polygon points="146,170 158,174 164,192 148,196 138,184" fill="#eedccf"/>
    </g>
    <polygon points="74,122 126,122 128,186 72,186" fill="url(#bodyGrad-airman)"/>
    <polygon points="72,186 92,186 88,224 64,224" fill="#c4cec8"/>
    <polygon points="108,186 128,186 136,224 112,224" fill="#c8d2cc"/>
    <polygon points="58,220 90,220 82,234 54,234" fill="#b6c0ba"/>
    <polygon points="112,220 146,220 138,234 108,234" fill="#b6c0ba"/>
    <polygon points="62,50 138,50 132,126 68,126" fill="#eedccf"/>
    <polygon points="52,54 72,30 136,32 148,56 128,58 100,42 74,58" fill="#7f8a86"/>
    <polygon points="62,52 100,52 100,126 70,126" fill="rgba(255,255,255,0.05)"/>
    <circle cx="84" cy="82" r="4" fill="#243a33"/><circle cx="116" cy="82" r="4" fill="#243a33"/>
    <line x1="90" y1="101" x2="120" y2="101" stroke="#243a33" stroke-width="4" stroke-linecap="round"/>
  </g>
</svg>