<?xml version="1.0" encoding="UTF-8"?>
<svg width="320" height="320" viewBox="0 0 200 240" xmlns="http://www.w3.org/2000/svg" role="img" aria-label="avatar lickdog">
  <defs>
    <linearGradient id="bodyGrad-lickdog" x1="0" x2="1">
      <stop offset="0%" stop-color="#ee9aa7"/>
      <stop offset="100%" stop-color="#dc8895"/>
    </linearGradient>
  </defs>
  <rect x="24" y="18" width="152" height="204" rx="34" fill="#ffd9de" opacity=".28"/>
  <path d="M148 54 C148 44 162 43 162 54 C162 62 154 68 148 74 C142 68 134 62 134 54 C134 43 148 44 148 54 Z" fill="#ffb2bf"/>
  <g>
    <g transform="rotate(10 52 146)">
      <polygon points="54,126 76,126 70,176 44,174" fill="url(#bodyGrad-lickdog)"/>
      <polygon points="42,172 54,170 58,190 44,194 34,182" fill="#f2d5c0"/>
    </g>
    <g transform="rotate(-12 148 146)">
      <polygon points="124,126 146,126 156,174 130,176" fill="url(#bodyGrad-lickdog)"/>
      <polygon points="146,170 158,174 164,192 148,196 138,184" fill="#f2d5c0"/>
    </g>
    <polygon points="70,124 126,118 132,184 68,188" fill="url(#bodyGrad-lickdog)"/>
    <polygon points="72,186 92,186 88,224 64,224" fill="#e4909d"/>
    <polygon points="108,186 128,186 136,224 112,224" fill="#e894a1"/>
    <polygon points="58,220 90,220 82,234 54,234" fill="#d6828f"/>
    <polygon points="112,220 146,220 138,234 108,234" fill="#d6828f"/>
    <polygon points="62,50 138,50 132,126 68,126" fill="#f2d5c0"/>
    <polygon points="52,54 72,30 136,32 148,56 128,58 100,42 74,58" fill="#704f58"/>
    <polygon points="62,52 100,52 100,126 70,126" fill="rgba(255,255,255,0.05)"/>
    <circle cx="84" cy="82" r="4" fill="#243a33"/><circle cx="116" cy="82" r="4" fill="#243a33"/>
    <path d="M92 101 Q104 108 118 101" stroke="#243a33" stroke-width="4" stroke-linecap="round" fill="none"/>
  </g>
</svg>