<?xml version="1.0" encoding="UTF-8"?>
<svg width="320" height="320" viewBox="0 0 200 240" xmlns="http://www.w3.org/2000/svg" role="img" aria-label="avatar observer">
  <defs>
    <linearGradient id="bodyGrad-observer" x1="0" x2="1">
      <stop offset="0%" stop-color="#8fb4a5"/>
      <stop offset="100%" stop-color="#7da293"/>
    </linearGradient>
  </defs>
  <rect x="24" y="18" width="152" height="204" rx="34" fill="#dbe9e3" opacity=".28"/>
  <g opacity=".9"><rect x="72" y="73" width="24" height="16" rx="5" fill="none" stroke="#243a33" stroke-width="3"/><rect x="104" y="73" width="24" height="16" rx="5" fill="none" stroke="#243a33" stroke-width="3"/><line x1="96" y1="81" x2="104" y2="81" stroke="#243a33" stroke-width="3"/></g>
  <g>
    <g transform="rotate(-4 52 146)">
      <polygon points="54,126 76,126 70,176 44,174" fill="url(#bodyGrad-observer)"/>
      <polygon points="42,172 54,170 58,190 44,194 34,182" fill="#e8d7cb"/>
    </g>
    <g transform="rotate(4 148 146)">
      <polygon points="124,126 146,126 156,174 130,176" fill="url(#bodyGrad-observer)"/>
      <polygon points="146,170 158,174 164,192 148,196 138,184" fill="#e8d7cb"/>
    </g>
    <polygon points="74,122 126,122 128,186 72,186" fill="url(#bodyGrad-observer)"/>
    <polygon points="72,186 92,186 88,224 64,224" fill="#85aa9b"/>
    <polygon points="108,186 128,186 136,224 112,224" fill="#89ae9f"/>
    <polygon points="58,220 90,220 82,234 54,234" fill="#779c8d"/>
    <polygon points="112,220 146,220 138,234 108,234" fill="#779c8d"/>
    <polygon points="62,50 138,50 132,126 68,126" fill="#e8d7cb"/>
    <polygon points="52,54 72,30 136,32 148,56 128,58 100,42 74,58" fill="#566268"/>
    <polygon points="62,52 100,52 100,126 70,126" fill="rgba(255,255,255,0.05)"/>
    <circle cx="84" cy="82" r="4" fill="#243a33"/><circle cx="116" cy="82" r="4" fill="#243a33"/>
    <line x1="90" y1="101" x2="120" y2="101" stroke="#243a33" stroke-width="4" stroke-linecap="round"/>
  </g>
</svg>