<?xml version="1.0" encoding="UTF-8"?>
<svg width="320" height="320" viewBox="0 0 200 240" xmlns="http://www.w3.org/2000/svg" role="img" aria-label="avatar overthinker">
  <defs>
    <linearGradient id="bodyGrad-overthinker" x1="0" x2="1">
      <stop offset="0%" stop-color="#9aabd6"/>
      <stop offset="100%" stop-color="#8899c4"/>
    </linearGradient>
  </defs>
  <rect x="24" y="18" width="152" height="204" rx="34" fill="#dde4f5" opacity=".28"/>
  <circle cx="148" cy="44" r="16" fill="#dde4f5"/><circle cx="132" cy="62" r="7" fill="#dde4f5"/><circle cx="124" cy="76" r="4" fill="#dde4f5"/>
  <g>
    <g transform="rotate(10 52 146)">
      <polygon points="54,126 76,126 70,176 44,174" fill="url(#bodyGrad-overthinker)"/>
      <polygon points="42,172 54,170 58,190 44,194 34,182" fill="#ecd9cd"/>
    </g>
    <g transform="rotate(-12 148 146)">
      <polygon points="124,126 146,126 156,174 130,176" fill="url(#bodyGrad-overthinker)"/>
      <polygon points="146,170 158,174 164,192 148,196 138,184" fill="#ecd9cd"/>
    </g>
    <polygon points="70,124 126,118 132,184 68,188" fill="url(#bodyGrad-overthinker)"/>
    <polygon points="72,186 92,186 88,224 64,224" fill="#90a1cc"/>
    <polygon points="108,186 128,186 136,224 112,224" fill="#94a5d0"/>
    <polygon points="58,220 90,220 82,234 54,234" fill="#8293be"/>
    <polygon points="112,220 146,220 138,234 108,234" fill="#8293be"/>
    <polygon points="62,50 138,50 132,126 68,126" fill="#ecd9cd"/>
    <polygon points="54,52 72,28 134,32 146,56 126,54 110,70 86,54" fill="#5b6176"/>
    <polygon points="62,52 100,52 100,126 70,126" fill="rgba(255,255,255,0.05)"/>
    <circle cx="84" cy="83" r="4" fill="#243a33"/><circle cx="116" cy="83" r="4" fill="#243a33"/><path d="M76 73 Q84 68 92 73" stroke="#243a33" stroke-width="3" fill="none"/><path d="M108 73 Q116 68 124 73" stroke="#243a33" stroke-width="3" fill="none"/>
    <path d="M90 106 Q104 96 120 106" stroke="#243a33" stroke-width="4" stroke-linecap="round" fill="none"/>
  </g>
</svg>