<?xml version="1.0" encoding="UTF-8"?>
<svg width="320" height="320" viewBox="0 0 200 240" xmlns="http://www.w3.org/2000/svg" role="img" aria-label="avatar switcher">
  <defs>
    <linearGradient id="bodyGrad-switcher" x1="0" x2="1">
      <stop offset="0%" stop-color="#8fd0be"/>
      <stop offset="100%" stop-color="#7dbeac"/>
    </linearGradient>
  </defs>
  <rect x="24" y="18" width="152" height="204" rx="34" fill="#dcf5ee" opacity=".28"/>
  <path d="M146 38 L158 50 L146 62 L134 50 Z" fill="#ffffff" opacity=".8"/><line x1="146" y1="38" x2="146" y2="62" stroke="#243a33" stroke-width="2"/>
  <g>
    <g transform="rotate(-4 52 146)">
      <polygon points="54,126 76,126 70,176 44,174" fill="url(#bodyGrad-switcher)"/>
      <polygon points="42,172 54,170 58,190 44,194 34,182" fill="#efd3be"/>
    </g>
    <g transform="rotate(4 148 146)">
      <polygon points="124,126 146,126 156,174 130,176" fill="url(#bodyGrad-switcher)"/>
      <polygon points="146,170 158,174 164,192 148,196 138,184" fill="#efd3be"/>
    </g>
    
      <polygon points="72,122 100,120 100,186 66,186" fill="url(#bodyGrad-switcher)"/>
      <polygon points="100,120 126,124 136,186 100,186" fill="#83c4b2"/>
    
    <polygon points="72,186 92,186 88,224 64,224" fill="#85c6b4"/>
    <polygon points="108,186 128,186 136,224 112,224" fill="#89cab8"/>
    <polygon points="58,220 90,220 82,234 54,234" fill="#77b8a6"/>
    <polygon points="112,220 146,220 138,234 108,234" fill="#77b8a6"/>
    <polygon points="62,50 138,50 132,126 68,126" fill="#efd3be"/>
    
      <polygon points="54,52 80,32 100,46 100,52" fill="#5a6264"/>
      <polygon points="100,52 100,40 142,34 150,52" fill="#50585a"/>
    
    <polygon points="62,52 100,52 100,126 70,126" fill="rgba(255,255,255,0.05)"/>
    <circle cx="84" cy="82" r="4" fill="#243a33"/><circle cx="116" cy="82" r="4" fill="#243a33"/>
    <path d="M90 99 Q104 108 120 100" stroke="#243a33" stroke-width="4" stroke-linecap="round" fill="none"/>
  </g>
</svg>